<svg width="98" height="210" viewBox="0 0 98 210" fill="none" xmlns="http://www.w3.org/2000/svg">
<rect x="0.5" y="0.5" width="97" height="209" fill="#F2F4F7" stroke="#B0B6BF"/>
<g opacity="0.3">
<path d="M40.0059 83.5C37.9844 83.5 36.3047 82.8408 34.9668 81.5225C33.6289 80.2041 32.96 78.5635 32.96 76.6006C32.96 74.6377 33.6387 72.9971 34.9961 71.6787C36.3535 70.3604 38.0723 69.7012 40.1523 69.7012C42.2324 69.7012 43.9512 70.3604 45.3086 71.6787C46.6758 72.9971 47.3594 74.6377 47.3594 76.6006C47.3594 77.3623 47.2324 78.1191 46.9785 78.8711C46.7246 79.6133 46.4805 80.1748 46.2461 80.5557L45.8506 81.0977L39.5518 91H37.3105L42.2617 83.207C41.6758 83.4023 40.9238 83.5 40.0059 83.5ZM36.5488 73.1289C35.6504 74.0078 35.2012 75.165 35.2012 76.6006C35.2012 78.0361 35.6504 79.1982 36.5488 80.0869C37.457 80.9658 38.6582 81.4053 40.1523 81.4053C41.6562 81.4053 42.8574 80.9658 43.7559 80.0869C44.6543 79.1982 45.1035 78.0361 45.1035 76.6006C45.1035 75.165 44.6543 74.0078 43.7559 73.1289C42.8574 72.2402 41.6562 71.7959 40.1523 71.7959C38.6582 71.7959 37.457 72.2402 36.5488 73.1289ZM55.0059 77.7285C55.7188 78.373 56.666 78.6953 57.8477 78.6953C59.0293 78.6953 59.9717 78.373 60.6748 77.7285C61.3877 77.0742 61.7441 76.249 61.7441 75.2529C61.7441 74.2471 61.3877 73.4219 60.6748 72.7773C59.9717 72.123 59.0293 71.7959 57.8477 71.7959C56.666 71.7959 55.7188 72.123 55.0059 72.7773C54.3027 73.4219 53.9512 74.2471 53.9512 75.2529C53.9512 76.249 54.3027 77.0742 55.0059 77.7285ZM53.4971 71.3857C54.6982 70.2627 56.1484 69.7012 57.8477 69.7012C59.5469 69.7012 60.9971 70.2627 62.1982 71.3857C63.3994 72.499 64 73.7881 64 75.2529C64 75.8291 63.9023 76.3809 63.707 76.9082C63.5215 77.4258 63.2969 77.8408 63.0332 78.1533C62.7793 78.4561 62.5205 78.7246 62.2568 78.959C62.0029 79.1836 61.7832 79.3496 61.5977 79.457L61.3047 79.6035C61.4023 79.6426 61.5293 79.6963 61.6855 79.7646C61.8516 79.833 62.1396 80.0186 62.5498 80.3213C62.96 80.624 63.3213 80.9561 63.6338 81.3174C63.9561 81.6689 64.2441 82.167 64.498 82.8115C64.7617 83.4463 64.8936 84.125 64.8936 84.8477C64.8936 86.6055 64.2197 88.1191 62.8721 89.3887C61.5244 90.6582 59.8496 91.293 57.8477 91.293C55.8457 91.293 54.1709 90.6582 52.8232 89.3887C51.4756 88.1191 50.8018 86.6055 50.8018 84.8477C50.8018 84.125 50.9238 83.4512 51.168 82.8262C51.4219 82.1914 51.7246 81.6885 52.0762 81.3174C52.4277 80.9365 52.7744 80.6094 53.1162 80.3359C53.4678 80.0625 53.7754 79.877 54.0391 79.7793L54.4053 79.6035C54.3271 79.5645 54.2246 79.5156 54.0977 79.457C53.9805 79.3887 53.7656 79.2324 53.4531 78.9883C53.1406 78.7344 52.8623 78.4561 52.6182 78.1533C52.3838 77.8408 52.1689 77.4258 51.9736 76.9082C51.7881 76.3809 51.6953 75.8291 51.6953 75.2529C51.6953 73.7881 52.2959 72.499 53.4971 71.3857ZM61.2314 81.8154C60.2939 80.9365 59.166 80.4971 57.8477 80.4971C56.5293 80.4971 55.3965 80.9365 54.4492 81.8154C53.5117 82.6943 53.043 83.7051 53.043 84.8477C53.043 86.0293 53.4824 87.0498 54.3613 87.9092C55.25 88.7686 56.4121 89.1982 57.8477 89.1982C59.293 89.1982 60.4551 88.7686 61.334 87.9092C62.2129 87.0498 62.6523 86.0293 62.6523 84.8477C62.6523 83.7051 62.1787 82.6943 61.2314 81.8154Z" fill="#B0B6BF"/>
<path d="M49.3389 107.155L45.1494 113H42.5859L47.9912 105.5L43.04 98.6006H45.5889L49.3389 103.845L53.0889 98.6006H55.6377L50.6865 105.5L56.0918 113H53.543L49.3389 107.155Z" fill="#B0B6BF"/>
<path d="M40.0205 142H26.5146C26.5146 140.623 26.793 139.363 27.3496 138.221C27.916 137.078 28.6143 136.16 29.4443 135.467C30.2744 134.764 31.1729 134.061 32.1396 133.357C33.1064 132.654 34.0049 132.029 34.835 131.482C35.665 130.936 36.3584 130.257 36.915 129.446C37.4814 128.636 37.7646 127.771 37.7646 126.854C37.7646 125.633 37.3643 124.651 36.5635 123.909C35.7627 123.167 34.6641 122.796 33.2676 122.796C32.5645 122.796 31.9248 122.923 31.3486 123.177C30.7822 123.421 30.3428 123.719 30.0303 124.07C29.7275 124.422 29.4736 124.773 29.2686 125.125C29.0732 125.477 28.9365 125.779 28.8584 126.033L28.7705 126.399L26.8076 125.506C26.8271 125.369 26.8711 125.193 26.9395 124.979C27.0176 124.764 27.2129 124.383 27.5254 123.836C27.8477 123.289 28.2236 122.806 28.6533 122.386C29.083 121.966 29.708 121.58 30.5283 121.229C31.3486 120.877 32.2617 120.701 33.2676 120.701C35.2695 120.701 36.8955 121.287 38.1455 122.459C39.3955 123.631 40.0205 125.096 40.0205 126.854C40.0205 127.869 39.7861 128.812 39.3174 129.681C38.8584 130.55 38.2773 131.282 37.5742 131.878C36.8809 132.464 36.0947 133.079 35.2158 133.724C34.3369 134.358 33.502 134.949 32.7109 135.496C31.9199 136.033 31.1826 136.688 30.499 137.459C29.8252 138.23 29.3467 139.046 29.0635 139.905H40.0205V142ZM47.5059 120.994H49.1611V142H46.9053V125.198H43.0088V123.851C43.6924 123.831 44.3076 123.719 44.8545 123.514C45.4014 123.299 45.8359 123.06 46.1582 122.796C46.4805 122.522 46.7441 122.249 46.9492 121.976C47.1641 121.702 47.3105 121.478 47.3887 121.302L47.5059 120.994ZM58.1553 125.11C56.9443 126.653 56.3389 128.787 56.3389 131.512C56.3389 134.227 56.9443 136.355 58.1553 137.898C59.3662 139.432 60.8213 140.198 62.5205 140.198C64.2002 140.198 65.6406 139.427 66.8418 137.884C68.043 136.331 68.6436 134.202 68.6436 131.497C68.6436 128.772 68.0381 126.644 66.8271 125.11C65.6162 123.567 64.1709 122.796 62.4912 122.796C60.8115 122.796 59.3662 123.567 58.1553 125.11ZM68.4092 123.675C70.0693 125.647 70.8994 128.255 70.8994 131.497C70.8994 134.739 70.0742 137.352 68.4238 139.334C66.7734 141.307 64.8057 142.293 62.5205 142.293C60.2158 142.293 58.2334 141.307 56.5732 139.334C54.9229 137.352 54.0977 134.739 54.0977 131.497C54.0977 128.255 54.9277 125.647 56.5879 123.675C58.248 121.692 60.2158 120.701 62.4912 120.701C64.7764 120.701 66.749 121.692 68.4092 123.675Z" fill="#B0B6BF"/>
</g>
</svg>
