<svg width="148" height="210" viewBox="0 0 148 210" fill="none" xmlns="http://www.w3.org/2000/svg">
<rect x="0.5" y="0.5" width="147" height="209" fill="#F2F4F7" stroke="#B0B6BF"/>
<path opacity="0.3" d="M67.3945 109.395L62.0039 96.1914L56.5938 109.395H67.3945ZM68.6055 112.207H55.4023L52.1992 120H48.9961L60.5977 91.9922H63.3906L74.9922 120H71.8086L68.6055 112.207ZM88.4102 101.992C91.1055 101.992 93.3451 102.878 95.1289 104.648C96.9128 106.406 97.8047 108.587 97.8047 111.191C97.8047 113.913 96.9258 116.126 95.168 117.832C93.4102 119.538 91.0924 120.391 88.2148 120.391C87.069 120.391 85.9622 120.247 84.8945 119.961C83.8268 119.661 82.9479 119.316 82.2578 118.926C81.5807 118.522 80.9818 118.112 80.4609 117.695C79.9401 117.279 79.5755 116.927 79.3672 116.641L79.0156 116.191L81.0078 114.199C81.0599 114.277 81.151 114.401 81.2812 114.57C81.4245 114.727 81.7174 115 82.1602 115.391C82.6159 115.768 83.0977 116.113 83.6055 116.426C84.1133 116.725 84.7773 116.999 85.5977 117.246C86.431 117.48 87.3034 117.598 88.2148 117.598C90.2201 117.598 91.8216 117.012 93.0195 115.84C94.2174 114.668 94.8164 113.118 94.8164 111.191C94.8164 109.303 94.2174 107.767 93.0195 106.582C91.8346 105.397 90.2982 104.805 88.4102 104.805C87.1602 104.805 86.0143 105.059 84.9727 105.566C83.931 106.074 83.2083 106.562 82.8047 107.031L82.1992 107.793H80.0117L81.0078 91.9922L96.0078 91.9922V94.8047H83.6055L83 103.594C83.1562 103.49 83.3776 103.346 83.6641 103.164C83.9505 102.969 84.556 102.728 85.4805 102.441C86.418 102.142 87.3945 101.992 88.4102 101.992Z" fill="#B0B6BF"/>
</svg>
