<svg width="105" height="148" viewBox="0 0 105 148" fill="none" xmlns="http://www.w3.org/2000/svg">
<rect x="0.5" y="0.5" width="104" height="147" fill="#F2F4F7" stroke="#B0B6BF"/>
<path opacity="0.3" d="M46.3945 78.3945L41.0039 65.1914L35.5938 78.3945H46.3945ZM47.6055 81.207H34.4023L31.1992 89H27.9961L39.5977 60.9922H42.3906L53.9922 89H50.8086L47.6055 81.207ZM67 70.9922C69.6953 70.9922 71.9349 71.8776 73.7188 73.6484C75.5156 75.4062 76.4141 77.5938 76.4141 80.2109C76.4141 82.8151 75.5026 84.9961 73.6797 86.7539C71.8698 88.5117 69.5781 89.3906 66.8047 89.3906C64.0312 89.3906 61.7396 88.5117 59.9297 86.7539C58.1198 84.9961 57.2148 82.8086 57.2148 80.1914C57.2148 79.1758 57.3776 78.1732 57.7031 77.1836C58.0417 76.181 58.3672 75.4258 58.6797 74.918L59.207 74.1953L67.6055 60.9922H70.6133L64.0117 71.4023C64.7799 71.1289 65.776 70.9922 67 70.9922ZM71.6094 84.8398C72.8073 83.668 73.4062 82.125 73.4062 80.2109C73.4062 78.2839 72.8073 76.7344 71.6094 75.5625C70.4115 74.3906 68.8099 73.8047 66.8047 73.8047C64.8125 73.8047 63.2109 74.3906 62 75.5625C60.8021 76.7344 60.2031 78.2839 60.2031 80.2109C60.2031 82.125 60.8021 83.668 62 84.8398C63.2109 86.0117 64.8125 86.5977 66.8047 86.5977C68.8099 86.5977 70.4115 86.0117 71.6094 84.8398Z" fill="#B0B6BF"/>
</svg>
