<svg width="187" height="96" viewBox="0 0 187 96" fill="none" xmlns="http://www.w3.org/2000/svg">
<path d="M171.455 6H16L31.5455 96H187L171.455 6Z" fill="#B0B6BF"/>
<path d="M0.593768 95.5L15.9665 6.5H170.406L155.034 95.5H0.593768Z" fill="#F2F4F7" stroke="#B0B6BF"/>
<g opacity="0.3">
<path d="M53.2129 59H44.209C44.209 58.082 44.3945 57.2422 44.7656 56.4805C45.1432 55.7188 45.6087 55.1068 46.1621 54.6445C46.7155 54.1758 47.3145 53.707 47.959 53.2383C48.6035 52.7695 49.2025 52.3529 49.7559 51.9883C50.3092 51.6237 50.7715 51.1712 51.1426 50.6309C51.5202 50.0905 51.709 49.5143 51.709 48.9023C51.709 48.0885 51.4421 47.4342 50.9082 46.9395C50.3743 46.4447 49.6419 46.1973 48.7109 46.1973C48.2422 46.1973 47.8158 46.2819 47.4316 46.4512C47.054 46.6139 46.7611 46.8125 46.5527 47.0469C46.3509 47.2812 46.1816 47.5156 46.0449 47.75C45.9147 47.9844 45.8236 48.1862 45.7715 48.3555L45.7129 48.5996L44.4043 48.0039C44.4173 47.9128 44.4466 47.7956 44.4922 47.6523C44.5443 47.5091 44.6745 47.2552 44.8828 46.8906C45.0977 46.526 45.3483 46.2038 45.6348 45.9238C45.9212 45.6439 46.3379 45.3867 46.8848 45.1523C47.4316 44.918 48.0404 44.8008 48.7109 44.8008C50.0456 44.8008 51.1296 45.1914 51.9629 45.9727C52.7962 46.7539 53.2129 47.7305 53.2129 48.9023C53.2129 49.5794 53.0566 50.2077 52.7441 50.7871C52.4382 51.3665 52.0508 51.8548 51.582 52.252C51.1198 52.6426 50.5957 53.0527 50.0098 53.4824C49.4238 53.9056 48.8672 54.2995 48.3398 54.6641C47.8125 55.0221 47.321 55.4583 46.8652 55.9727C46.416 56.487 46.097 57.0306 45.9082 57.6035H53.2129V59ZM58.3105 47.7402C57.5033 48.7689 57.0996 50.1914 57.0996 52.0078C57.0996 53.8177 57.5033 55.237 58.3105 56.2656C59.1178 57.2878 60.0879 57.7988 61.2207 57.7988C62.3405 57.7988 63.3008 57.2845 64.1016 56.2559C64.9023 55.2207 65.3027 53.8014 65.3027 51.998C65.3027 50.1816 64.8991 48.7624 64.0918 47.7402C63.2845 46.7116 62.321 46.1973 61.2012 46.1973C60.0814 46.1973 59.1178 46.7116 58.3105 47.7402ZM65.1465 46.7832C66.2533 48.0983 66.8066 49.8366 66.8066 51.998C66.8066 54.1595 66.2565 55.901 65.1562 57.2227C64.056 58.5378 62.7441 59.1953 61.2207 59.1953C59.6842 59.1953 58.3626 58.5378 57.2559 57.2227C56.1556 55.901 55.6055 54.1595 55.6055 51.998C55.6055 49.8366 56.1589 48.0983 57.2656 46.7832C58.3724 45.4616 59.6842 44.8008 61.2012 44.8008C62.7246 44.8008 64.0397 45.4616 65.1465 46.7832ZM71.9043 47.7402C71.097 48.7689 70.6934 50.1914 70.6934 52.0078C70.6934 53.8177 71.097 55.237 71.9043 56.2656C72.7116 57.2878 73.6816 57.7988 74.8145 57.7988C75.9342 57.7988 76.8945 57.2845 77.6953 56.2559C78.4961 55.2207 78.8965 53.8014 78.8965 51.998C78.8965 50.1816 78.4928 48.7624 77.6855 47.7402C76.8783 46.7116 75.9147 46.1973 74.7949 46.1973C73.6751 46.1973 72.7116 46.7116 71.9043 47.7402ZM78.7402 46.7832C79.847 48.0983 80.4004 49.8366 80.4004 51.998C80.4004 54.1595 79.8503 55.901 78.75 57.2227C77.6497 58.5378 76.3379 59.1953 74.8145 59.1953C73.278 59.1953 71.9564 58.5378 70.8496 57.2227C69.7493 55.901 69.1992 54.1595 69.1992 51.998C69.1992 49.8366 69.7526 48.0983 70.8594 46.7832C71.9661 45.4616 73.278 44.8008 74.7949 44.8008C76.3184 44.8008 77.6335 45.4616 78.7402 46.7832Z" fill="#B0B6BF"/>
<path d="M87.8926 53.1035L85.0996 57H83.3906L86.9941 52L83.6934 47.4004H85.3926L87.8926 50.8965L90.3926 47.4004H92.0918L88.791 52L92.3945 57H90.6953L87.8926 53.1035Z" fill="#B0B6BF"/>
<path d="M98.209 44.9961H99.3125V59H97.8086V47.7988H95.2109V46.9004C95.6667 46.8874 96.0768 46.8125 96.4414 46.6758C96.806 46.5326 97.0957 46.373 97.3105 46.1973C97.5254 46.015 97.7012 45.8327 97.8379 45.6504C97.9811 45.4681 98.0788 45.3184 98.1309 45.2012L98.209 44.9961ZM105.309 47.7402C104.501 48.7689 104.098 50.1914 104.098 52.0078C104.098 53.8177 104.501 55.237 105.309 56.2656C106.116 57.2878 107.086 57.7988 108.219 57.7988C109.339 57.7988 110.299 57.2845 111.1 56.2559C111.9 55.2207 112.301 53.8014 112.301 51.998C112.301 50.1816 111.897 48.7624 111.09 47.7402C110.283 46.7116 109.319 46.1973 108.199 46.1973C107.079 46.1973 106.116 46.7116 105.309 47.7402ZM112.145 46.7832C113.251 48.0983 113.805 49.8366 113.805 51.998C113.805 54.1595 113.255 55.901 112.154 57.2227C111.054 58.5378 109.742 59.1953 108.219 59.1953C106.682 59.1953 105.361 58.5378 104.254 57.2227C103.154 55.901 102.604 54.1595 102.604 51.998C102.604 49.8366 103.157 48.0983 104.264 46.7832C105.37 45.4616 106.682 44.8008 108.199 44.8008C109.723 44.8008 111.038 45.4616 112.145 46.7832ZM118.902 47.7402C118.095 48.7689 117.691 50.1914 117.691 52.0078C117.691 53.8177 118.095 55.237 118.902 56.2656C119.71 57.2878 120.68 57.7988 121.812 57.7988C122.932 57.7988 123.893 57.2845 124.693 56.2559C125.494 55.2207 125.895 53.8014 125.895 51.998C125.895 50.1816 125.491 48.7624 124.684 47.7402C123.876 46.7116 122.913 46.1973 121.793 46.1973C120.673 46.1973 119.71 46.7116 118.902 47.7402ZM125.738 46.7832C126.845 48.0983 127.398 49.8366 127.398 51.998C127.398 54.1595 126.848 55.901 125.748 57.2227C124.648 58.5378 123.336 59.1953 121.812 59.1953C120.276 59.1953 118.954 58.5378 117.848 57.2227C116.747 55.901 116.197 54.1595 116.197 51.998C116.197 49.8366 116.751 48.0983 117.857 46.7832C118.964 45.4616 120.276 44.8008 121.793 44.8008C123.316 44.8008 124.632 45.4616 125.738 46.7832Z" fill="#B0B6BF"/>
</g>
<rect x="28" width="2" height="12.2975" fill="#B0B6BF"/>
<rect x="35" width="2" height="12.2975" fill="#B0B6BF"/>
<rect x="42" width="2" height="12.2975" fill="#B0B6BF"/>
<rect x="49" width="2" height="12.2975" fill="#B0B6BF"/>
<rect x="56" width="2" height="12.2975" fill="#B0B6BF"/>
<rect x="63" width="2" height="12.2975" fill="#B0B6BF"/>
<rect x="70" width="2" height="12.2975" fill="#B0B6BF"/>
<rect x="77" width="2" height="12.2975" fill="#B0B6BF"/>
<rect x="84" width="2" height="12.2975" fill="#B0B6BF"/>
<rect x="91" width="2" height="12.2975" fill="#B0B6BF"/>
<rect x="98" width="2" height="12.2975" fill="#B0B6BF"/>
<rect x="105" width="2" height="12.2975" fill="#B0B6BF"/>
<rect x="154" width="2" height="12.2975" fill="#B0B6BF"/>
<rect x="112" width="2" height="12.2975" fill="#B0B6BF"/>
<rect x="119" width="2" height="12.2975" fill="#B0B6BF"/>
<rect x="126" width="2" height="12.2975" fill="#B0B6BF"/>
<rect x="133" width="2" height="12.2975" fill="#B0B6BF"/>
<rect x="140" width="2" height="12.2975" fill="#B0B6BF"/>
<rect x="147" width="2" height="12.2975" fill="#B0B6BF"/>
</svg>
