<svg width="210" height="310" viewBox="0 0 210 310" fill="none" xmlns="http://www.w3.org/2000/svg">
<rect x="0.5" y="13.5" width="209" height="296" fill="#F2F4F7" stroke="#B0B6BF"/>
<line x1="49" y1="10" x2="95" y2="10" stroke="#B0B6BF" stroke-width="2"/>
<line x1="115" y1="10" x2="161" y2="10" stroke="#B0B6BF" stroke-width="2"/>
<path d="M115 11C115 5.47715 110.523 1 105 1C99.4772 1 95 5.47715 95 11" stroke="#B0B6BF" stroke-width="2"/>
<rect x="29" y="6" width="2" height="12.2977" fill="#B0B6BF"/>
<rect x="39" y="6" width="2" height="12.2977" fill="#B0B6BF"/>
<rect x="49" y="6" width="2" height="12.2977" fill="#B0B6BF"/>
<rect x="59" y="6" width="2" height="12.2977" fill="#B0B6BF"/>
<rect x="69" y="6" width="2" height="12.2977" fill="#B0B6BF"/>
<rect x="79" y="6" width="2" height="12.2977" fill="#B0B6BF"/>
<rect x="89" y="6" width="2" height="12.2977" fill="#B0B6BF"/>
<rect x="99" y="6" width="2" height="12.2977" fill="#B0B6BF"/>
<rect x="109" y="6" width="2" height="12.2977" fill="#B0B6BF"/>
<rect x="119" y="6" width="2" height="12.2977" fill="#B0B6BF"/>
<rect x="129" y="6" width="2" height="12.2977" fill="#B0B6BF"/>
<rect x="139" y="6" width="2" height="12.2977" fill="#B0B6BF"/>
<rect x="149" y="6" width="2" height="12.2977" fill="#B0B6BF"/>
<rect x="159" y="6" width="2" height="12.2977" fill="#B0B6BF"/>
<rect x="169" y="6" width="2" height="12.2977" fill="#B0B6BF"/>
<rect x="179" y="6" width="2" height="12.2977" fill="#B0B6BF"/>
<g opacity="0.3">
<path d="M95.9932 147H82.4873C82.4873 145.623 82.7656 144.363 83.3223 143.221C83.8887 142.078 84.5869 141.16 85.417 140.467C86.2471 139.764 87.1455 139.061 88.1123 138.357C89.0791 137.654 89.9775 137.029 90.8076 136.482C91.6377 135.936 92.3311 135.257 92.8877 134.446C93.4541 133.636 93.7373 132.771 93.7373 131.854C93.7373 130.633 93.3369 129.651 92.5361 128.909C91.7354 128.167 90.6367 127.796 89.2402 127.796C88.5371 127.796 87.8975 127.923 87.3213 128.177C86.7549 128.421 86.3154 128.719 86.0029 129.07C85.7002 129.422 85.4463 129.773 85.2412 130.125C85.0459 130.477 84.9092 130.779 84.8311 131.033L84.7432 131.399L82.7803 130.506C82.7998 130.369 82.8438 130.193 82.9121 129.979C82.9902 129.764 83.1855 129.383 83.498 128.836C83.8203 128.289 84.1963 127.806 84.626 127.386C85.0557 126.966 85.6807 126.58 86.501 126.229C87.3213 125.877 88.2344 125.701 89.2402 125.701C91.2422 125.701 92.8682 126.287 94.1182 127.459C95.3682 128.631 95.9932 130.096 95.9932 131.854C95.9932 132.869 95.7588 133.812 95.29 134.681C94.8311 135.55 94.25 136.282 93.5469 136.878C92.8535 137.464 92.0674 138.079 91.1885 138.724C90.3096 139.358 89.4746 139.949 88.6836 140.496C87.8926 141.033 87.1553 141.688 86.4717 142.459C85.7979 143.23 85.3193 144.046 85.0361 144.905H95.9932V147ZM106.481 139.5C104.46 139.5 102.78 138.841 101.442 137.522C100.104 136.204 99.4355 134.563 99.4355 132.601C99.4355 130.638 100.114 128.997 101.472 127.679C102.829 126.36 104.548 125.701 106.628 125.701C108.708 125.701 110.427 126.36 111.784 127.679C113.151 128.997 113.835 130.638 113.835 132.601C113.835 133.362 113.708 134.119 113.454 134.871C113.2 135.613 112.956 136.175 112.722 136.556L112.326 137.098L106.027 147H103.786L108.737 139.207C108.151 139.402 107.399 139.5 106.481 139.5ZM103.024 129.129C102.126 130.008 101.677 131.165 101.677 132.601C101.677 134.036 102.126 135.198 103.024 136.087C103.933 136.966 105.134 137.405 106.628 137.405C108.132 137.405 109.333 136.966 110.231 136.087C111.13 135.198 111.579 134.036 111.579 132.601C111.579 131.165 111.13 130.008 110.231 129.129C109.333 128.24 108.132 127.796 106.628 127.796C105.134 127.796 103.933 128.24 103.024 129.129ZM115.754 125.994L128.967 125.994V128.104L119.665 147H117.409L126.711 128.104H115.754V125.994Z" fill="#B0B6BF"/>
<path d="M105.339 163.155L101.149 169H98.5859L103.991 161.5L99.04 154.601H101.589L105.339 159.845L109.089 154.601H111.638L106.687 161.5L112.092 169H109.543L105.339 163.155Z" fill="#B0B6BF"/>
<path d="M96.0205 198H82.5146C82.5146 196.623 82.793 195.363 83.3496 194.221C83.916 193.078 84.6143 192.16 85.4443 191.467C86.2744 190.764 87.1729 190.061 88.1396 189.357C89.1064 188.654 90.0049 188.029 90.835 187.482C91.665 186.936 92.3584 186.257 92.915 185.446C93.4814 184.636 93.7646 183.771 93.7646 182.854C93.7646 181.633 93.3643 180.651 92.5635 179.909C91.7627 179.167 90.6641 178.796 89.2676 178.796C88.5645 178.796 87.9248 178.923 87.3486 179.177C86.7822 179.421 86.3428 179.719 86.0303 180.07C85.7275 180.422 85.4736 180.773 85.2686 181.125C85.0732 181.477 84.9365 181.779 84.8584 182.033L84.7705 182.399L82.8076 181.506C82.8271 181.369 82.8711 181.193 82.9395 180.979C83.0176 180.764 83.2129 180.383 83.5254 179.836C83.8477 179.289 84.2236 178.806 84.6533 178.386C85.083 177.966 85.708 177.58 86.5283 177.229C87.3486 176.877 88.2617 176.701 89.2676 176.701C91.2695 176.701 92.8955 177.287 94.1455 178.459C95.3955 179.631 96.0205 181.096 96.0205 182.854C96.0205 183.869 95.7861 184.812 95.3174 185.681C94.8584 186.55 94.2773 187.282 93.5742 187.878C92.8809 188.464 92.0947 189.079 91.2158 189.724C90.3369 190.358 89.502 190.949 88.7109 191.496C87.9199 192.033 87.1826 192.688 86.499 193.459C85.8252 194.23 85.3467 195.046 85.0635 195.905H96.0205V198ZM103.506 176.994H105.161V198H102.905V181.198H99.0088V179.851C99.6924 179.831 100.308 179.719 100.854 179.514C101.401 179.299 101.836 179.06 102.158 178.796C102.48 178.522 102.744 178.249 102.949 177.976C103.164 177.702 103.311 177.478 103.389 177.302L103.506 176.994ZM114.155 181.11C112.944 182.653 112.339 184.787 112.339 187.512C112.339 190.227 112.944 192.355 114.155 193.898C115.366 195.432 116.821 196.198 118.521 196.198C120.2 196.198 121.641 195.427 122.842 193.884C124.043 192.331 124.644 190.202 124.644 187.497C124.644 184.772 124.038 182.644 122.827 181.11C121.616 179.567 120.171 178.796 118.491 178.796C116.812 178.796 115.366 179.567 114.155 181.11ZM124.409 179.675C126.069 181.647 126.899 184.255 126.899 187.497C126.899 190.739 126.074 193.352 124.424 195.334C122.773 197.307 120.806 198.293 118.521 198.293C116.216 198.293 114.233 197.307 112.573 195.334C110.923 193.352 110.098 190.739 110.098 187.497C110.098 184.255 110.928 181.647 112.588 179.675C114.248 177.692 116.216 176.701 118.491 176.701C120.776 176.701 122.749 177.692 124.409 179.675Z" fill="#B0B6BF"/>
</g>
</svg>
