<svg width="70" height="100" viewBox="0 0 70 100" fill="none" xmlns="http://www.w3.org/2000/svg">
<rect x="0.5" y="99.5" width="99" height="69" rx="6.5" transform="rotate(-90 0.5 99.5)" fill="#F2F4F7" stroke="#B0B6BF"/>
<g opacity="0.3">
<path d="M22.209 26.9961H23.3125L23.3125 41H21.8086L21.8086 29.7988H19.2109V28.9004C19.6667 28.8874 20.0768 28.8125 20.4414 28.6758C20.806 28.5326 21.0957 28.373 21.3105 28.1973C21.5254 28.015 21.7012 27.8327 21.8379 27.6504C21.9811 27.4681 22.0788 27.3184 22.1309 27.2012L22.209 26.9961ZM29.3086 29.7402C28.5013 30.7689 28.0977 32.1914 28.0977 34.0078C28.0977 35.8177 28.5013 37.237 29.3086 38.2656C30.1159 39.2878 31.0859 39.7988 32.2188 39.7988C33.3385 39.7988 34.2988 39.2845 35.0996 38.2559C35.9004 37.2207 36.3008 35.8014 36.3008 33.998C36.3008 32.1816 35.8971 30.7624 35.0898 29.7402C34.2826 28.7116 33.319 28.1973 32.1992 28.1973C31.0794 28.1973 30.1159 28.7116 29.3086 29.7402ZM36.1445 28.7832C37.2513 30.0983 37.8047 31.8366 37.8047 33.998C37.8047 36.1595 37.2546 37.901 36.1543 39.2227C35.054 40.5378 33.7422 41.1953 32.2188 41.1953C30.6823 41.1953 29.3607 40.5378 28.2539 39.2227C27.1536 37.901 26.6035 36.1595 26.6035 33.998C26.6035 31.8366 27.1569 30.0983 28.2637 28.7832C29.3704 27.4616 30.6823 26.8008 32.1992 26.8008C33.7227 26.8008 35.0378 27.4616 36.1445 28.7832ZM42.9023 29.7402C42.0951 30.7689 41.6914 32.1914 41.6914 34.0078C41.6914 35.8177 42.0951 37.237 42.9023 38.2656C43.7096 39.2878 44.6797 39.7988 45.8125 39.7988C46.9323 39.7988 47.8926 39.2845 48.6934 38.2559C49.4941 37.2207 49.8945 35.8014 49.8945 33.998C49.8945 32.1816 49.4909 30.7624 48.6836 29.7402C47.8763 28.7116 46.9128 28.1973 45.793 28.1973C44.6732 28.1973 43.7096 28.7116 42.9023 29.7402ZM49.7383 28.7832C50.8451 30.0983 51.3984 31.8366 51.3984 33.998C51.3984 36.1595 50.8483 37.901 49.748 39.2227C48.6478 40.5378 47.3359 41.1953 45.8125 41.1953C44.276 41.1953 42.9544 40.5378 41.8477 39.2227C40.7474 37.901 40.1973 36.1595 40.1973 33.998C40.1973 31.8366 40.7507 30.0983 41.8574 28.7832C42.9642 27.4616 44.276 26.8008 45.793 26.8008C47.3164 26.8008 48.6315 27.4616 49.7383 28.7832Z" fill="#B0B6BF"/>
<path d="M34.8926 51.1035L32.0996 55H30.3906L33.9941 50L30.6934 45.4004H32.3926L34.8926 48.8965L37.3926 45.4004H39.0918L35.791 50L39.3945 55H37.6953L34.8926 51.1035Z" fill="#B0B6BF"/>
<path d="M24.0527 59.9961H32.8613V61.4023L26.6602 74H25.1562L31.3574 61.4023H24.0527V59.9961ZM36.8555 62.7402C36.0482 63.7689 35.6445 65.1914 35.6445 67.0078C35.6445 68.8177 36.0482 70.237 36.8555 71.2656C37.6628 72.2878 38.6328 72.7988 39.7656 72.7988C40.8854 72.7988 41.8457 72.2845 42.6465 71.2559C43.4473 70.2207 43.8477 68.8014 43.8477 66.998C43.8477 65.1816 43.444 63.7624 42.6367 62.7402C41.8294 61.7116 40.8659 61.1973 39.7461 61.1973C38.6263 61.1973 37.6628 61.7116 36.8555 62.7402ZM43.6914 61.7832C44.7982 63.0983 45.3516 64.8366 45.3516 66.998C45.3516 69.1595 44.8014 70.901 43.7012 72.2227C42.6009 73.5378 41.2891 74.1953 39.7656 74.1953C38.2292 74.1953 36.9076 73.5378 35.8008 72.2227C34.7005 70.901 34.1504 69.1595 34.1504 66.998C34.1504 64.8366 34.7038 63.0983 35.8105 61.7832C36.9173 60.4616 38.2292 59.8008 39.7461 59.8008C41.2695 59.8008 42.5846 60.4616 43.6914 61.7832Z" fill="#B0B6BF"/>
</g>
</svg>
