<svg width="140" height="359" viewBox="0 0 140 359" fill="none" xmlns="http://www.w3.org/2000/svg">
<rect x="0.5" y="278.5" width="139" height="79.3704" fill="#F2F4F7" stroke="#B0B6BF"/>
<rect x="0.5" y="194.5" width="139" height="79.3704" fill="#F2F4F7" stroke="#B0B6BF"/>
<rect x="6" width="2" height="12.2977" fill="#B0B6BF"/>
<rect x="13" width="2" height="12.2977" fill="#B0B6BF"/>
<rect x="20" width="2" height="12.2977" fill="#B0B6BF"/>
<rect x="27" width="2" height="12.2977" fill="#B0B6BF"/>
<rect x="34" width="2" height="12.2977" fill="#B0B6BF"/>
<rect x="41" width="2" height="12.2977" fill="#B0B6BF"/>
<rect x="48" width="2" height="12.2977" fill="#B0B6BF"/>
<rect x="55" width="2" height="12.2977" fill="#B0B6BF"/>
<rect x="62" width="2" height="12.2977" fill="#B0B6BF"/>
<rect x="69" width="2" height="12.2977" fill="#B0B6BF"/>
<rect x="76" width="2" height="12.2977" fill="#B0B6BF"/>
<rect x="83" width="2" height="12.2977" fill="#B0B6BF"/>
<rect x="132" width="2" height="12.2977" fill="#B0B6BF"/>
<rect x="90" width="2" height="12.2977" fill="#B0B6BF"/>
<rect x="97" width="2" height="12.2977" fill="#B0B6BF"/>
<rect x="104" width="2" height="12.2977" fill="#B0B6BF"/>
<rect x="111" width="2" height="12.2977" fill="#B0B6BF"/>
<rect x="118" width="2" height="12.2977" fill="#B0B6BF"/>
<rect x="125" width="2" height="12.2977" fill="#B0B6BF"/>
<rect x="6" y="102" width="2" height="12.2977" fill="#B0B6BF"/>
<rect x="13" y="102" width="2" height="12.2977" fill="#B0B6BF"/>
<rect x="20" y="102" width="2" height="12.2977" fill="#B0B6BF"/>
<rect x="27" y="102" width="2" height="12.2977" fill="#B0B6BF"/>
<rect x="34" y="102" width="2" height="12.2977" fill="#B0B6BF"/>
<rect x="41" y="102" width="2" height="12.2977" fill="#B0B6BF"/>
<rect x="48" y="102" width="2" height="12.2977" fill="#B0B6BF"/>
<rect x="55" y="102" width="2" height="12.2977" fill="#B0B6BF"/>
<rect x="62" y="102" width="2" height="12.2977" fill="#B0B6BF"/>
<rect x="69" y="102" width="2" height="12.2977" fill="#B0B6BF"/>
<rect x="76" y="102" width="2" height="12.2977" fill="#B0B6BF"/>
<rect x="83" y="102" width="2" height="12.2977" fill="#B0B6BF"/>
<rect x="132" y="102" width="2" height="12.2977" fill="#B0B6BF"/>
<rect x="90" y="102" width="2" height="12.2977" fill="#B0B6BF"/>
<rect x="97" y="102" width="2" height="12.2977" fill="#B0B6BF"/>
<rect x="104" y="102" width="2" height="12.2977" fill="#B0B6BF"/>
<rect x="111" y="102" width="2" height="12.2977" fill="#B0B6BF"/>
<rect x="118" y="102" width="2" height="12.2977" fill="#B0B6BF"/>
<rect x="125" y="102" width="2" height="12.2977" fill="#B0B6BF"/>
<rect x="6" y="186" width="2" height="12.2977" fill="#B0B6BF"/>
<rect x="13" y="186" width="2" height="12.2977" fill="#B0B6BF"/>
<rect x="20" y="186" width="2" height="12.2977" fill="#B0B6BF"/>
<rect x="27" y="186" width="2" height="12.2977" fill="#B0B6BF"/>
<rect x="34" y="186" width="2" height="12.2977" fill="#B0B6BF"/>
<rect x="41" y="186" width="2" height="12.2977" fill="#B0B6BF"/>
<rect x="48" y="186" width="2" height="12.2977" fill="#B0B6BF"/>
<rect x="55" y="186" width="2" height="12.2977" fill="#B0B6BF"/>
<rect x="62" y="186" width="2" height="12.2977" fill="#B0B6BF"/>
<rect x="69" y="186" width="2" height="12.2977" fill="#B0B6BF"/>
<rect x="76" y="186" width="2" height="12.2977" fill="#B0B6BF"/>
<rect x="83" y="186" width="2" height="12.2977" fill="#B0B6BF"/>
<rect x="132" y="186" width="2" height="12.2977" fill="#B0B6BF"/>
<rect x="90" y="186" width="2" height="12.2977" fill="#B0B6BF"/>
<rect x="97" y="186" width="2" height="12.2977" fill="#B0B6BF"/>
<rect x="104" y="186" width="2" height="12.2977" fill="#B0B6BF"/>
<rect x="111" y="186" width="2" height="12.2977" fill="#B0B6BF"/>
<rect x="118" y="186" width="2" height="12.2977" fill="#B0B6BF"/>
<rect x="125" y="186" width="2" height="12.2977" fill="#B0B6BF"/>
<rect x="6" y="270" width="2" height="12.2977" fill="#B0B6BF"/>
<rect x="13" y="270" width="2" height="12.2977" fill="#B0B6BF"/>
<rect x="20" y="270" width="2" height="12.2977" fill="#B0B6BF"/>
<rect x="27" y="270" width="2" height="12.2977" fill="#B0B6BF"/>
<rect x="34" y="270" width="2" height="12.2977" fill="#B0B6BF"/>
<rect x="41" y="270" width="2" height="12.2977" fill="#B0B6BF"/>
<rect x="48" y="270" width="2" height="12.2977" fill="#B0B6BF"/>
<rect x="55" y="270" width="2" height="12.2977" fill="#B0B6BF"/>
<rect x="62" y="270" width="2" height="12.2977" fill="#B0B6BF"/>
<rect x="69" y="270" width="2" height="12.2977" fill="#B0B6BF"/>
<rect x="76" y="270" width="2" height="12.2977" fill="#B0B6BF"/>
<rect x="83" y="270" width="2" height="12.2977" fill="#B0B6BF"/>
<rect x="132" y="270" width="2" height="12.2977" fill="#B0B6BF"/>
<rect x="90" y="270" width="2" height="12.2977" fill="#B0B6BF"/>
<rect x="97" y="270" width="2" height="12.2977" fill="#B0B6BF"/>
<rect x="104" y="270" width="2" height="12.2977" fill="#B0B6BF"/>
<rect x="111" y="270" width="2" height="12.2977" fill="#B0B6BF"/>
<rect x="118" y="270" width="2" height="12.2977" fill="#B0B6BF"/>
<rect x="125" y="270" width="2" height="12.2977" fill="#B0B6BF"/>
<mask id="path-79-inside-1_642:2800" fill="white">
<path fill-rule="evenodd" clip-rule="evenodd" d="M140 6H0V106.247H140V6ZM70.001 22.6663C71.842 22.6663 73.3344 21.1739 73.3344 19.3329C73.3344 17.492 71.842 15.9996 70.001 15.9996C68.1601 15.9996 66.6677 17.492 66.6677 19.3329C66.6677 21.1739 68.1601 22.6663 70.001 22.6663Z"/>
</mask>
<path fill-rule="evenodd" clip-rule="evenodd" d="M140 6H0V106.247H140V6ZM70.001 22.6663C71.842 22.6663 73.3344 21.1739 73.3344 19.3329C73.3344 17.492 71.842 15.9996 70.001 15.9996C68.1601 15.9996 66.6677 17.492 66.6677 19.3329C66.6677 21.1739 68.1601 22.6663 70.001 22.6663Z" fill="#B0B6BF" fill-opacity="0.4"/>
<path d="M0 6V5H-1V6H0ZM140 6H141V5H140V6ZM0 106.247H-1V107.247H0V106.247ZM140 106.247V107.247H141V106.247H140ZM0 7H140V5H0V7ZM1 106.247V6H-1V106.247H1ZM140 105.247H0V107.247H140V105.247ZM139 6V106.247H141V6H139ZM72.3344 19.3329C72.3344 20.6216 71.2897 21.6663 70.001 21.6663V23.6663C72.3943 23.6663 74.3344 21.7262 74.3344 19.3329H72.3344ZM70.001 16.9996C71.2897 16.9996 72.3344 18.0443 72.3344 19.3329H74.3344C74.3344 16.9397 72.3943 14.9996 70.001 14.9996V16.9996ZM67.6677 19.3329C67.6677 18.0443 68.7124 16.9996 70.001 16.9996V14.9996C67.6078 14.9996 65.6677 16.9397 65.6677 19.3329H67.6677ZM70.001 21.6663C68.7124 21.6663 67.6677 20.6216 67.6677 19.3329H65.6677C65.6677 21.7262 67.6078 23.6663 70.001 23.6663V21.6663Z" fill="#B0B6BF" mask="url(#path-79-inside-1_642:2800)"/>
<rect x="0.5" y="110.5" width="139" height="79.3704" fill="#F2F4F7" stroke="#B0B6BF"/>
<g opacity="0.3">
<path d="M41.1621 64H32.1582C32.1582 63.082 32.3438 62.2422 32.7148 61.4805C33.0924 60.7188 33.5579 60.1068 34.1113 59.6445C34.6647 59.1758 35.2637 58.707 35.9082 58.2383C36.5527 57.7695 37.1517 57.3529 37.7051 56.9883C38.2585 56.6237 38.7207 56.1712 39.0918 55.6309C39.4694 55.0905 39.6582 54.5143 39.6582 53.9023C39.6582 53.0885 39.3913 52.4342 38.8574 51.9395C38.3236 51.4447 37.5911 51.1973 36.6602 51.1973C36.1914 51.1973 35.765 51.2819 35.3809 51.4512C35.0033 51.6139 34.7103 51.8125 34.502 52.0469C34.3001 52.2812 34.1309 52.5156 33.9941 52.75C33.8639 52.9844 33.7728 53.1862 33.7207 53.3555L33.6621 53.5996L32.3535 53.0039C32.3665 52.9128 32.3958 52.7956 32.4414 52.6523C32.4935 52.5091 32.6237 52.2552 32.832 51.8906C33.0469 51.526 33.2975 51.2038 33.584 50.9238C33.8704 50.6439 34.2871 50.3867 34.834 50.1523C35.3809 49.918 35.9896 49.8008 36.6602 49.8008C37.9948 49.8008 39.0788 50.1914 39.9121 50.9727C40.7454 51.7539 41.1621 52.7305 41.1621 53.9023C41.1621 54.5794 41.0059 55.2077 40.6934 55.7871C40.3874 56.3665 40 56.8548 39.5312 57.252C39.069 57.6426 38.5449 58.0527 37.959 58.4824C37.373 58.9056 36.8164 59.2995 36.2891 59.6641C35.7617 60.0221 35.2702 60.4583 34.8145 60.9727C34.3652 61.487 34.0462 62.0306 33.8574 62.6035H41.1621V64ZM48.1543 59C46.8066 59 45.6868 58.5605 44.7949 57.6816C43.903 56.8027 43.457 55.709 43.457 54.4004C43.457 53.0918 43.9095 51.998 44.8145 51.1191C45.7194 50.2402 46.8652 49.8008 48.252 49.8008C49.6387 49.8008 50.7845 50.2402 51.6895 51.1191C52.6009 51.998 53.0566 53.0918 53.0566 54.4004C53.0566 54.9082 52.972 55.4128 52.8027 55.9141C52.6335 56.4089 52.4707 56.7832 52.3145 57.0371L52.0508 57.3984L47.8516 64H46.3574L49.6582 58.8047C49.2676 58.9349 48.7663 59 48.1543 59ZM45.8496 52.0859C45.2507 52.6719 44.9512 53.4434 44.9512 54.4004C44.9512 55.3574 45.2507 56.1322 45.8496 56.7246C46.4551 57.3105 47.2559 57.6035 48.252 57.6035C49.2546 57.6035 50.0553 57.3105 50.6543 56.7246C51.2533 56.1322 51.5527 55.3574 51.5527 54.4004C51.5527 53.4434 51.2533 52.6719 50.6543 52.0859C50.0553 51.4935 49.2546 51.1973 48.252 51.1973C47.2559 51.1973 46.4551 51.4935 45.8496 52.0859ZM54.3359 49.9961L63.1445 49.9961V51.4023L56.9434 64H55.4395L61.6406 51.4023L54.3359 51.4023V49.9961Z" fill="#B0B6BF"/>
<path d="M70.8926 58.1035L68.0996 62H66.3906L69.9941 57L66.6934 52.4004H68.3926L70.8926 55.8965L73.3926 52.4004H75.0918L71.791 57L75.3945 62H73.6953L70.8926 58.1035Z" fill="#B0B6BF"/>
<path d="M88.0137 64H79.0098C79.0098 63.082 79.1953 62.2422 79.5664 61.4805C79.944 60.7188 80.4095 60.1068 80.9629 59.6445C81.5163 59.1758 82.1152 58.707 82.7598 58.2383C83.4043 57.7695 84.0033 57.3529 84.5566 56.9883C85.11 56.6237 85.5723 56.1712 85.9434 55.6309C86.321 55.0905 86.5098 54.5143 86.5098 53.9023C86.5098 53.0885 86.2428 52.4342 85.709 51.9395C85.1751 51.4447 84.4427 51.1973 83.5117 51.1973C83.043 51.1973 82.6165 51.2819 82.2324 51.4512C81.8548 51.6139 81.5618 51.8125 81.3535 52.0469C81.1517 52.2812 80.9824 52.5156 80.8457 52.75C80.7155 52.9844 80.6243 53.1862 80.5723 53.3555L80.5137 53.5996L79.2051 53.0039C79.2181 52.9128 79.2474 52.7956 79.293 52.6523C79.3451 52.5091 79.4753 52.2552 79.6836 51.8906C79.8984 51.526 80.1491 51.2038 80.4355 50.9238C80.722 50.6439 81.1387 50.3867 81.6855 50.1523C82.2324 49.918 82.8411 49.8008 83.5117 49.8008C84.8464 49.8008 85.9303 50.1914 86.7637 50.9727C87.597 51.7539 88.0137 52.7305 88.0137 53.9023C88.0137 54.5794 87.8574 55.2077 87.5449 55.7871C87.2389 56.3665 86.8516 56.8548 86.3828 57.252C85.9206 57.6426 85.3965 58.0527 84.8105 58.4824C84.2246 58.9056 83.668 59.2995 83.1406 59.6641C82.6133 60.0221 82.1217 60.4583 81.666 60.9727C81.2168 61.487 80.8978 62.0306 80.709 62.6035H88.0137V64ZM93.0039 49.9961H94.1074V64H92.6035V52.7988H90.0059V51.9004C90.4616 51.8874 90.8717 51.8125 91.2363 51.6758C91.6009 51.5326 91.8906 51.373 92.1055 51.1973C92.3203 51.015 92.4961 50.8327 92.6328 50.6504C92.776 50.4681 92.8737 50.3184 92.9258 50.2012L93.0039 49.9961ZM100.104 52.7402C99.2962 53.7689 98.8926 55.1914 98.8926 57.0078C98.8926 58.8177 99.2962 60.237 100.104 61.2656C100.911 62.2878 101.881 62.7988 103.014 62.7988C104.133 62.7988 105.094 62.2845 105.895 61.2559C106.695 60.2207 107.096 58.8014 107.096 56.998C107.096 55.1816 106.692 53.7624 105.885 52.7402C105.077 51.7116 104.114 51.1973 102.994 51.1973C101.874 51.1973 100.911 51.7116 100.104 52.7402ZM106.939 51.7832C108.046 53.0983 108.6 54.8366 108.6 56.998C108.6 59.1595 108.049 60.901 106.949 62.2227C105.849 63.5378 104.537 64.1953 103.014 64.1953C101.477 64.1953 100.156 63.5378 99.0488 62.2227C97.9486 60.901 97.3984 59.1595 97.3984 56.998C97.3984 54.8366 97.9518 53.0983 99.0586 51.7832C100.165 50.4616 101.477 49.8008 102.994 49.8008C104.518 49.8008 105.833 50.4616 106.939 51.7832Z" fill="#B0B6BF"/>
</g>
<g opacity="0.3">
<path d="M41.0137 159H32.0098C32.0098 158.082 32.1953 157.242 32.5664 156.48C32.944 155.719 33.4095 155.107 33.9629 154.645C34.5163 154.176 35.1152 153.707 35.7598 153.238C36.4043 152.77 37.0033 152.353 37.5566 151.988C38.11 151.624 38.5723 151.171 38.9434 150.631C39.321 150.09 39.5098 149.514 39.5098 148.902C39.5098 148.089 39.2428 147.434 38.709 146.939C38.1751 146.445 37.4427 146.197 36.5117 146.197C36.043 146.197 35.6165 146.282 35.2324 146.451C34.8548 146.614 34.5618 146.812 34.3535 147.047C34.1517 147.281 33.9824 147.516 33.8457 147.75C33.7155 147.984 33.6243 148.186 33.5723 148.355L33.5137 148.6L32.2051 148.004C32.2181 147.913 32.2474 147.796 32.293 147.652C32.3451 147.509 32.4753 147.255 32.6836 146.891C32.8984 146.526 33.1491 146.204 33.4355 145.924C33.722 145.644 34.1387 145.387 34.6855 145.152C35.2324 144.918 35.8411 144.801 36.5117 144.801C37.8464 144.801 38.9303 145.191 39.7637 145.973C40.597 146.754 41.0137 147.73 41.0137 148.902C41.0137 149.579 40.8574 150.208 40.5449 150.787C40.2389 151.367 39.8516 151.855 39.3828 152.252C38.9206 152.643 38.3965 153.053 37.8105 153.482C37.2246 153.906 36.668 154.299 36.1406 154.664C35.6133 155.022 35.1217 155.458 34.666 155.973C34.2168 156.487 33.8978 157.031 33.709 157.604H41.0137V159ZM46.0039 144.996H47.1074V159H45.6035V147.799H43.0059V146.9C43.4616 146.887 43.8717 146.812 44.2363 146.676C44.6009 146.533 44.8906 146.373 45.1055 146.197C45.3203 146.015 45.4961 145.833 45.6328 145.65C45.776 145.468 45.8737 145.318 45.9258 145.201L46.0039 144.996ZM53.1035 147.74C52.2962 148.769 51.8926 150.191 51.8926 152.008C51.8926 153.818 52.2962 155.237 53.1035 156.266C53.9108 157.288 54.8809 157.799 56.0137 157.799C57.1335 157.799 58.0938 157.285 58.8945 156.256C59.6953 155.221 60.0957 153.801 60.0957 151.998C60.0957 150.182 59.6921 148.762 58.8848 147.74C58.0775 146.712 57.1139 146.197 55.9941 146.197C54.8743 146.197 53.9108 146.712 53.1035 147.74ZM59.9395 146.783C61.0462 148.098 61.5996 149.837 61.5996 151.998C61.5996 154.16 61.0495 155.901 59.9492 157.223C58.849 158.538 57.5371 159.195 56.0137 159.195C54.4772 159.195 53.1556 158.538 52.0488 157.223C50.9486 155.901 50.3984 154.16 50.3984 151.998C50.3984 149.837 50.9518 148.098 52.0586 146.783C53.1654 145.462 54.4772 144.801 55.9941 144.801C57.5176 144.801 58.8327 145.462 59.9395 146.783Z" fill="#B0B6BF"/>
<path d="M70.8926 153.104L68.0996 157H66.3906L69.9941 152L66.6934 147.4H68.3926L70.8926 150.896L73.3926 147.4H75.0918L71.791 152L75.3945 157H73.6953L70.8926 153.104Z" fill="#B0B6BF"/>
<path d="M82.8496 144.996H83.9531V159H82.4492V147.799H79.8516V146.9C80.3073 146.887 80.7174 146.812 81.082 146.676C81.4466 146.533 81.7363 146.373 81.9512 146.197C82.166 146.015 82.3418 145.833 82.4785 145.65C82.6217 145.468 82.7194 145.318 82.7715 145.201L82.8496 144.996ZM95.2422 154.596H97.0391V156.002H95.2422V159H93.7383V156.002H86.6387V154.303L93.3477 144.996H95.2422V154.596ZM93.7383 154.596V146.695L88.0449 154.596H93.7383ZM103.943 149.996C105.291 149.996 106.411 150.439 107.303 151.324C108.195 152.203 108.641 153.294 108.641 154.596C108.641 155.956 108.201 157.063 107.322 157.916C106.443 158.769 105.285 159.195 103.846 159.195C103.273 159.195 102.719 159.124 102.186 158.98C101.652 158.831 101.212 158.658 100.867 158.463C100.529 158.261 100.229 158.056 99.9688 157.848C99.7083 157.639 99.526 157.464 99.4219 157.32L99.2461 157.096L100.242 156.1C100.268 156.139 100.314 156.201 100.379 156.285C100.451 156.363 100.597 156.5 100.818 156.695C101.046 156.884 101.287 157.057 101.541 157.213C101.795 157.363 102.127 157.499 102.537 157.623C102.954 157.74 103.39 157.799 103.846 157.799C104.848 157.799 105.649 157.506 106.248 156.92C106.847 156.334 107.146 155.559 107.146 154.596C107.146 153.652 106.847 152.883 106.248 152.291C105.656 151.699 104.887 151.402 103.943 151.402C103.318 151.402 102.745 151.529 102.225 151.783C101.704 152.037 101.342 152.281 101.141 152.516L100.838 152.896H99.7441L100.242 144.996H107.742V146.402H101.541L101.238 150.797C101.316 150.745 101.427 150.673 101.57 150.582C101.714 150.484 102.016 150.364 102.479 150.221C102.947 150.071 103.436 149.996 103.943 149.996Z" fill="#B0B6BF"/>
</g>
<g opacity="0.3">
<path d="M41.0137 243H32.0098C32.0098 242.082 32.1953 241.242 32.5664 240.48C32.944 239.719 33.4095 239.107 33.9629 238.645C34.5163 238.176 35.1152 237.707 35.7598 237.238C36.4043 236.77 37.0033 236.353 37.5566 235.988C38.11 235.624 38.5723 235.171 38.9434 234.631C39.321 234.09 39.5098 233.514 39.5098 232.902C39.5098 232.089 39.2428 231.434 38.709 230.939C38.1751 230.445 37.4427 230.197 36.5117 230.197C36.043 230.197 35.6165 230.282 35.2324 230.451C34.8548 230.614 34.5618 230.812 34.3535 231.047C34.1517 231.281 33.9824 231.516 33.8457 231.75C33.7155 231.984 33.6243 232.186 33.5723 232.355L33.5137 232.6L32.2051 232.004C32.2181 231.913 32.2474 231.796 32.293 231.652C32.3451 231.509 32.4753 231.255 32.6836 230.891C32.8984 230.526 33.1491 230.204 33.4355 229.924C33.722 229.644 34.1387 229.387 34.6855 229.152C35.2324 228.918 35.8411 228.801 36.5117 228.801C37.8464 228.801 38.9303 229.191 39.7637 229.973C40.597 230.754 41.0137 231.73 41.0137 232.902C41.0137 233.579 40.8574 234.208 40.5449 234.787C40.2389 235.367 39.8516 235.855 39.3828 236.252C38.9206 236.643 38.3965 237.053 37.8105 237.482C37.2246 237.906 36.668 238.299 36.1406 238.664C35.6133 239.022 35.1217 239.458 34.666 239.973C34.2168 240.487 33.8978 241.031 33.709 241.604H41.0137V243ZM46.0039 228.996H47.1074V243H45.6035V231.799H43.0059V230.9C43.4616 230.887 43.8717 230.812 44.2363 230.676C44.6009 230.533 44.8906 230.373 45.1055 230.197C45.3203 230.015 45.4961 229.833 45.6328 229.65C45.776 229.468 45.8737 229.318 45.9258 229.201L46.0039 228.996ZM53.1035 231.74C52.2962 232.769 51.8926 234.191 51.8926 236.008C51.8926 237.818 52.2962 239.237 53.1035 240.266C53.9108 241.288 54.8809 241.799 56.0137 241.799C57.1335 241.799 58.0938 241.285 58.8945 240.256C59.6953 239.221 60.0957 237.801 60.0957 235.998C60.0957 234.182 59.6921 232.762 58.8848 231.74C58.0775 230.712 57.1139 230.197 55.9941 230.197C54.8743 230.197 53.9108 230.712 53.1035 231.74ZM59.9395 230.783C61.0462 232.098 61.5996 233.837 61.5996 235.998C61.5996 238.16 61.0495 239.901 59.9492 241.223C58.849 242.538 57.5371 243.195 56.0137 243.195C54.4772 243.195 53.1556 242.538 52.0488 241.223C50.9486 239.901 50.3984 238.16 50.3984 235.998C50.3984 233.837 50.9518 232.098 52.0586 230.783C53.1654 229.462 54.4772 228.801 55.9941 228.801C57.5176 228.801 58.8327 229.462 59.9395 230.783Z" fill="#B0B6BF"/>
<path d="M70.8926 237.104L68.0996 241H66.3906L69.9941 236L66.6934 231.4H68.3926L70.8926 234.896L73.3926 231.4H75.0918L71.791 236L75.3945 241H73.6953L70.8926 237.104Z" fill="#B0B6BF"/>
<path d="M82.8496 228.996H83.9531V243H82.4492V231.799H79.8516V230.9C80.3073 230.887 80.7174 230.812 81.082 230.676C81.4466 230.533 81.7363 230.373 81.9512 230.197C82.166 230.015 82.3418 229.833 82.4785 229.65C82.6217 229.468 82.7194 229.318 82.7715 229.201L82.8496 228.996ZM95.2422 238.596H97.0391V240.002H95.2422V243H93.7383V240.002H86.6387V238.303L93.3477 228.996H95.2422V238.596ZM93.7383 238.596V230.695L88.0449 238.596H93.7383ZM103.943 233.996C105.291 233.996 106.411 234.439 107.303 235.324C108.195 236.203 108.641 237.294 108.641 238.596C108.641 239.956 108.201 241.063 107.322 241.916C106.443 242.769 105.285 243.195 103.846 243.195C103.273 243.195 102.719 243.124 102.186 242.98C101.652 242.831 101.212 242.658 100.867 242.463C100.529 242.261 100.229 242.056 99.9688 241.848C99.7083 241.639 99.526 241.464 99.4219 241.32L99.2461 241.096L100.242 240.1C100.268 240.139 100.314 240.201 100.379 240.285C100.451 240.363 100.597 240.5 100.818 240.695C101.046 240.884 101.287 241.057 101.541 241.213C101.795 241.363 102.127 241.499 102.537 241.623C102.954 241.74 103.39 241.799 103.846 241.799C104.848 241.799 105.649 241.506 106.248 240.92C106.847 240.334 107.146 239.559 107.146 238.596C107.146 237.652 106.847 236.883 106.248 236.291C105.656 235.699 104.887 235.402 103.943 235.402C103.318 235.402 102.745 235.529 102.225 235.783C101.704 236.037 101.342 236.281 101.141 236.516L100.838 236.896H99.7441L100.242 228.996H107.742V230.402H101.541L101.238 234.797C101.316 234.745 101.427 234.673 101.57 234.582C101.714 234.484 102.016 234.364 102.479 234.221C102.947 234.071 103.436 233.996 103.943 233.996Z" fill="#B0B6BF"/>
</g>
<g opacity="0.3">
<path d="M41.0137 327H32.0098C32.0098 326.082 32.1953 325.242 32.5664 324.48C32.944 323.719 33.4095 323.107 33.9629 322.645C34.5163 322.176 35.1152 321.707 35.7598 321.238C36.4043 320.77 37.0033 320.353 37.5566 319.988C38.11 319.624 38.5723 319.171 38.9434 318.631C39.321 318.09 39.5098 317.514 39.5098 316.902C39.5098 316.089 39.2428 315.434 38.709 314.939C38.1751 314.445 37.4427 314.197 36.5117 314.197C36.043 314.197 35.6165 314.282 35.2324 314.451C34.8548 314.614 34.5618 314.812 34.3535 315.047C34.1517 315.281 33.9824 315.516 33.8457 315.75C33.7155 315.984 33.6243 316.186 33.5723 316.355L33.5137 316.6L32.2051 316.004C32.2181 315.913 32.2474 315.796 32.293 315.652C32.3451 315.509 32.4753 315.255 32.6836 314.891C32.8984 314.526 33.1491 314.204 33.4355 313.924C33.722 313.644 34.1387 313.387 34.6855 313.152C35.2324 312.918 35.8411 312.801 36.5117 312.801C37.8464 312.801 38.9303 313.191 39.7637 313.973C40.597 314.754 41.0137 315.73 41.0137 316.902C41.0137 317.579 40.8574 318.208 40.5449 318.787C40.2389 319.367 39.8516 319.855 39.3828 320.252C38.9206 320.643 38.3965 321.053 37.8105 321.482C37.2246 321.906 36.668 322.299 36.1406 322.664C35.6133 323.022 35.1217 323.458 34.666 323.973C34.2168 324.487 33.8978 325.031 33.709 325.604H41.0137V327ZM46.0039 312.996H47.1074V327H45.6035V315.799H43.0059V314.9C43.4616 314.887 43.8717 314.812 44.2363 314.676C44.6009 314.533 44.8906 314.373 45.1055 314.197C45.3203 314.015 45.4961 313.833 45.6328 313.65C45.776 313.468 45.8737 313.318 45.9258 313.201L46.0039 312.996ZM53.1035 315.74C52.2962 316.769 51.8926 318.191 51.8926 320.008C51.8926 321.818 52.2962 323.237 53.1035 324.266C53.9108 325.288 54.8809 325.799 56.0137 325.799C57.1335 325.799 58.0938 325.285 58.8945 324.256C59.6953 323.221 60.0957 321.801 60.0957 319.998C60.0957 318.182 59.6921 316.762 58.8848 315.74C58.0775 314.712 57.1139 314.197 55.9941 314.197C54.8743 314.197 53.9108 314.712 53.1035 315.74ZM59.9395 314.783C61.0462 316.098 61.5996 317.837 61.5996 319.998C61.5996 322.16 61.0495 323.901 59.9492 325.223C58.849 326.538 57.5371 327.195 56.0137 327.195C54.4772 327.195 53.1556 326.538 52.0488 325.223C50.9486 323.901 50.3984 322.16 50.3984 319.998C50.3984 317.837 50.9518 316.098 52.0586 314.783C53.1654 313.462 54.4772 312.801 55.9941 312.801C57.5176 312.801 58.8327 313.462 59.9395 314.783Z" fill="#B0B6BF"/>
<path d="M70.8926 321.104L68.0996 325H66.3906L69.9941 320L66.6934 315.4H68.3926L70.8926 318.896L73.3926 315.4H75.0918L71.791 320L75.3945 325H73.6953L70.8926 321.104Z" fill="#B0B6BF"/>
<path d="M82.8496 312.996H83.9531V327H82.4492V315.799H79.8516V314.9C80.3073 314.887 80.7174 314.812 81.082 314.676C81.4466 314.533 81.7363 314.373 81.9512 314.197C82.166 314.015 82.3418 313.833 82.4785 313.65C82.6217 313.468 82.7194 313.318 82.7715 313.201L82.8496 312.996ZM95.2422 322.596H97.0391V324.002H95.2422V327H93.7383V324.002H86.6387V322.303L93.3477 312.996H95.2422V322.596ZM93.7383 322.596V314.695L88.0449 322.596H93.7383ZM103.943 317.996C105.291 317.996 106.411 318.439 107.303 319.324C108.195 320.203 108.641 321.294 108.641 322.596C108.641 323.956 108.201 325.063 107.322 325.916C106.443 326.769 105.285 327.195 103.846 327.195C103.273 327.195 102.719 327.124 102.186 326.98C101.652 326.831 101.212 326.658 100.867 326.463C100.529 326.261 100.229 326.056 99.9688 325.848C99.7083 325.639 99.526 325.464 99.4219 325.32L99.2461 325.096L100.242 324.1C100.268 324.139 100.314 324.201 100.379 324.285C100.451 324.363 100.597 324.5 100.818 324.695C101.046 324.884 101.287 325.057 101.541 325.213C101.795 325.363 102.127 325.499 102.537 325.623C102.954 325.74 103.39 325.799 103.846 325.799C104.848 325.799 105.649 325.506 106.248 324.92C106.847 324.334 107.146 323.559 107.146 322.596C107.146 321.652 106.847 320.883 106.248 320.291C105.656 319.699 104.887 319.402 103.943 319.402C103.318 319.402 102.745 319.529 102.225 319.783C101.704 320.037 101.342 320.281 101.141 320.516L100.838 320.896H99.7441L100.242 312.996H107.742V314.402H101.541L101.238 318.797C101.316 318.745 101.427 318.673 101.57 318.582C101.714 318.484 102.016 318.364 102.479 318.221C102.947 318.071 103.436 317.996 103.943 317.996Z" fill="#B0B6BF"/>
</g>
</svg>
