<svg width="140" height="191" viewBox="0 0 140 191" fill="none" xmlns="http://www.w3.org/2000/svg">
<rect x="0.5" y="110.451" width="139" height="79.3704" fill="#F2F4F7" stroke="#B0B6BF"/>
<mask id="path-2-inside-1_642:2801" fill="white">
<path fill-rule="evenodd" clip-rule="evenodd" d="M140 6H0V106.247H140V6ZM70.001 22.6663C71.842 22.6663 73.3344 21.1739 73.3344 19.3329C73.3344 17.492 71.842 15.9996 70.001 15.9996C68.1601 15.9996 66.6677 17.492 66.6677 19.3329C66.6677 21.1739 68.1601 22.6663 70.001 22.6663Z"/>
</mask>
<path fill-rule="evenodd" clip-rule="evenodd" d="M140 6H0V106.247H140V6ZM70.001 22.6663C71.842 22.6663 73.3344 21.1739 73.3344 19.3329C73.3344 17.492 71.842 15.9996 70.001 15.9996C68.1601 15.9996 66.6677 17.492 66.6677 19.3329C66.6677 21.1739 68.1601 22.6663 70.001 22.6663Z" fill="#B0B6BF" fill-opacity="0.4"/>
<path d="M0 6V5H-1V6H0ZM140 6H141V5H140V6ZM0 106.247H-1V107.247H0V106.247ZM140 106.247V107.247H141V106.247H140ZM0 7H140V5H0V7ZM1 106.247V6H-1V106.247H1ZM140 105.247H0V107.247H140V105.247ZM139 6V106.247H141V6H139ZM72.3344 19.3329C72.3344 20.6216 71.2897 21.6663 70.001 21.6663V23.6663C72.3943 23.6663 74.3344 21.7262 74.3344 19.3329H72.3344ZM70.001 16.9996C71.2897 16.9996 72.3344 18.0443 72.3344 19.3329H74.3344C74.3344 16.9397 72.3943 14.9996 70.001 14.9996V16.9996ZM67.6677 19.3329C67.6677 18.0443 68.7124 16.9996 70.001 16.9996V14.9996C67.6078 14.9996 65.6677 16.9397 65.6677 19.3329H67.6677ZM70.001 21.6663C68.7124 21.6663 67.6677 20.6216 67.6677 19.3329H65.6677C65.6677 21.7262 67.6078 23.6663 70.001 23.6663V21.6663Z" fill="#B0B6BF" mask="url(#path-2-inside-1_642:2801)"/>
<g opacity="0.3">
<path d="M41.1621 64H32.1582C32.1582 63.082 32.3438 62.2422 32.7148 61.4805C33.0924 60.7188 33.5579 60.1068 34.1113 59.6445C34.6647 59.1758 35.2637 58.707 35.9082 58.2383C36.5527 57.7695 37.1517 57.3529 37.7051 56.9883C38.2585 56.6237 38.7207 56.1712 39.0918 55.6309C39.4694 55.0905 39.6582 54.5143 39.6582 53.9023C39.6582 53.0885 39.3913 52.4342 38.8574 51.9395C38.3236 51.4447 37.5911 51.1973 36.6602 51.1973C36.1914 51.1973 35.765 51.2819 35.3809 51.4512C35.0033 51.6139 34.7103 51.8125 34.502 52.0469C34.3001 52.2812 34.1309 52.5156 33.9941 52.75C33.8639 52.9844 33.7728 53.1862 33.7207 53.3555L33.6621 53.5996L32.3535 53.0039C32.3665 52.9128 32.3958 52.7956 32.4414 52.6523C32.4935 52.5091 32.6237 52.2552 32.832 51.8906C33.0469 51.526 33.2975 51.2038 33.584 50.9238C33.8704 50.6439 34.2871 50.3867 34.834 50.1523C35.3809 49.918 35.9896 49.8008 36.6602 49.8008C37.9948 49.8008 39.0788 50.1914 39.9121 50.9727C40.7454 51.7539 41.1621 52.7305 41.1621 53.9023C41.1621 54.5794 41.0059 55.2077 40.6934 55.7871C40.3874 56.3665 40 56.8548 39.5312 57.252C39.069 57.6426 38.5449 58.0527 37.959 58.4824C37.373 58.9056 36.8164 59.2995 36.2891 59.6641C35.7617 60.0221 35.2702 60.4583 34.8145 60.9727C34.3652 61.487 34.0462 62.0306 33.8574 62.6035H41.1621V64ZM48.1543 59C46.8066 59 45.6868 58.5605 44.7949 57.6816C43.903 56.8027 43.457 55.709 43.457 54.4004C43.457 53.0918 43.9095 51.998 44.8145 51.1191C45.7194 50.2402 46.8652 49.8008 48.252 49.8008C49.6387 49.8008 50.7845 50.2402 51.6895 51.1191C52.6009 51.998 53.0566 53.0918 53.0566 54.4004C53.0566 54.9082 52.972 55.4128 52.8027 55.9141C52.6335 56.4089 52.4707 56.7832 52.3145 57.0371L52.0508 57.3984L47.8516 64H46.3574L49.6582 58.8047C49.2676 58.9349 48.7663 59 48.1543 59ZM45.8496 52.0859C45.2507 52.6719 44.9512 53.4434 44.9512 54.4004C44.9512 55.3574 45.2507 56.1322 45.8496 56.7246C46.4551 57.3105 47.2559 57.6035 48.252 57.6035C49.2546 57.6035 50.0553 57.3105 50.6543 56.7246C51.2533 56.1322 51.5527 55.3574 51.5527 54.4004C51.5527 53.4434 51.2533 52.6719 50.6543 52.0859C50.0553 51.4935 49.2546 51.1973 48.252 51.1973C47.2559 51.1973 46.4551 51.4935 45.8496 52.0859ZM54.3359 49.9961L63.1445 49.9961V51.4023L56.9434 64H55.4395L61.6406 51.4023L54.3359 51.4023V49.9961Z" fill="#B0B6BF"/>
<path d="M70.8926 58.1035L68.0996 62H66.3906L69.9941 57L66.6934 52.4004H68.3926L70.8926 55.8965L73.3926 52.4004H75.0918L71.791 57L75.3945 62H73.6953L70.8926 58.1035Z" fill="#B0B6BF"/>
<path d="M88.0137 64H79.0098C79.0098 63.082 79.1953 62.2422 79.5664 61.4805C79.944 60.7188 80.4095 60.1068 80.9629 59.6445C81.5163 59.1758 82.1152 58.707 82.7598 58.2383C83.4043 57.7695 84.0033 57.3529 84.5566 56.9883C85.11 56.6237 85.5723 56.1712 85.9434 55.6309C86.321 55.0905 86.5098 54.5143 86.5098 53.9023C86.5098 53.0885 86.2428 52.4342 85.709 51.9395C85.1751 51.4447 84.4427 51.1973 83.5117 51.1973C83.043 51.1973 82.6165 51.2819 82.2324 51.4512C81.8548 51.6139 81.5618 51.8125 81.3535 52.0469C81.1517 52.2812 80.9824 52.5156 80.8457 52.75C80.7155 52.9844 80.6243 53.1862 80.5723 53.3555L80.5137 53.5996L79.2051 53.0039C79.2181 52.9128 79.2474 52.7956 79.293 52.6523C79.3451 52.5091 79.4753 52.2552 79.6836 51.8906C79.8984 51.526 80.1491 51.2038 80.4355 50.9238C80.722 50.6439 81.1387 50.3867 81.6855 50.1523C82.2324 49.918 82.8411 49.8008 83.5117 49.8008C84.8464 49.8008 85.9303 50.1914 86.7637 50.9727C87.597 51.7539 88.0137 52.7305 88.0137 53.9023C88.0137 54.5794 87.8574 55.2077 87.5449 55.7871C87.2389 56.3665 86.8516 56.8548 86.3828 57.252C85.9206 57.6426 85.3965 58.0527 84.8105 58.4824C84.2246 58.9056 83.668 59.2995 83.1406 59.6641C82.6133 60.0221 82.1217 60.4583 81.666 60.9727C81.2168 61.487 80.8978 62.0306 80.709 62.6035H88.0137V64ZM93.0039 49.9961H94.1074V64H92.6035V52.7988H90.0059V51.9004C90.4616 51.8874 90.8717 51.8125 91.2363 51.6758C91.6009 51.5326 91.8906 51.373 92.1055 51.1973C92.3203 51.015 92.4961 50.8327 92.6328 50.6504C92.776 50.4681 92.8737 50.3184 92.9258 50.2012L93.0039 49.9961ZM100.104 52.7402C99.2962 53.7689 98.8926 55.1914 98.8926 57.0078C98.8926 58.8177 99.2962 60.237 100.104 61.2656C100.911 62.2878 101.881 62.7988 103.014 62.7988C104.133 62.7988 105.094 62.2845 105.895 61.2559C106.695 60.2207 107.096 58.8014 107.096 56.998C107.096 55.1816 106.692 53.7624 105.885 52.7402C105.077 51.7116 104.114 51.1973 102.994 51.1973C101.874 51.1973 100.911 51.7116 100.104 52.7402ZM106.939 51.7832C108.046 53.0983 108.6 54.8366 108.6 56.998C108.6 59.1595 108.049 60.901 106.949 62.2227C105.849 63.5378 104.537 64.1953 103.014 64.1953C101.477 64.1953 100.156 63.5378 99.0488 62.2227C97.9486 60.901 97.3984 59.1595 97.3984 56.998C97.3984 54.8366 97.9518 53.0983 99.0586 51.7832C100.165 50.4616 101.477 49.8008 102.994 49.8008C104.518 49.8008 105.833 50.4616 106.939 51.7832Z" fill="#B0B6BF"/>
</g>
<g opacity="0.3">
<path d="M41.0137 156H32.0098C32.0098 155.082 32.1953 154.242 32.5664 153.48C32.944 152.719 33.4095 152.107 33.9629 151.645C34.5163 151.176 35.1152 150.707 35.7598 150.238C36.4043 149.77 37.0033 149.353 37.5566 148.988C38.11 148.624 38.5723 148.171 38.9434 147.631C39.321 147.09 39.5098 146.514 39.5098 145.902C39.5098 145.089 39.2428 144.434 38.709 143.939C38.1751 143.445 37.4427 143.197 36.5117 143.197C36.043 143.197 35.6165 143.282 35.2324 143.451C34.8548 143.614 34.5618 143.812 34.3535 144.047C34.1517 144.281 33.9824 144.516 33.8457 144.75C33.7155 144.984 33.6243 145.186 33.5723 145.355L33.5137 145.6L32.2051 145.004C32.2181 144.913 32.2474 144.796 32.293 144.652C32.3451 144.509 32.4753 144.255 32.6836 143.891C32.8984 143.526 33.1491 143.204 33.4355 142.924C33.722 142.644 34.1387 142.387 34.6855 142.152C35.2324 141.918 35.8411 141.801 36.5117 141.801C37.8464 141.801 38.9303 142.191 39.7637 142.973C40.597 143.754 41.0137 144.73 41.0137 145.902C41.0137 146.579 40.8574 147.208 40.5449 147.787C40.2389 148.367 39.8516 148.855 39.3828 149.252C38.9206 149.643 38.3965 150.053 37.8105 150.482C37.2246 150.906 36.668 151.299 36.1406 151.664C35.6133 152.022 35.1217 152.458 34.666 152.973C34.2168 153.487 33.8978 154.031 33.709 154.604H41.0137V156ZM46.0039 141.996H47.1074V156H45.6035V144.799H43.0059V143.9C43.4616 143.887 43.8717 143.812 44.2363 143.676C44.6009 143.533 44.8906 143.373 45.1055 143.197C45.3203 143.015 45.4961 142.833 45.6328 142.65C45.776 142.468 45.8737 142.318 45.9258 142.201L46.0039 141.996ZM53.1035 144.74C52.2962 145.769 51.8926 147.191 51.8926 149.008C51.8926 150.818 52.2962 152.237 53.1035 153.266C53.9108 154.288 54.8809 154.799 56.0137 154.799C57.1335 154.799 58.0938 154.285 58.8945 153.256C59.6953 152.221 60.0957 150.801 60.0957 148.998C60.0957 147.182 59.6921 145.762 58.8848 144.74C58.0775 143.712 57.1139 143.197 55.9941 143.197C54.8743 143.197 53.9108 143.712 53.1035 144.74ZM59.9395 143.783C61.0462 145.098 61.5996 146.837 61.5996 148.998C61.5996 151.16 61.0495 152.901 59.9492 154.223C58.849 155.538 57.5371 156.195 56.0137 156.195C54.4772 156.195 53.1556 155.538 52.0488 154.223C50.9486 152.901 50.3984 151.16 50.3984 148.998C50.3984 146.837 50.9518 145.098 52.0586 143.783C53.1654 142.462 54.4772 141.801 55.9941 141.801C57.5176 141.801 58.8327 142.462 59.9395 143.783Z" fill="#B0B6BF"/>
<path d="M70.8926 150.104L68.0996 154H66.3906L69.9941 149L66.6934 144.4H68.3926L70.8926 147.896L73.3926 144.4H75.0918L71.791 149L75.3945 154H73.6953L70.8926 150.104Z" fill="#B0B6BF"/>
<path d="M82.8496 141.996H83.9531V156H82.4492V144.799H79.8516V143.9C80.3073 143.887 80.7174 143.812 81.082 143.676C81.4466 143.533 81.7363 143.373 81.9512 143.197C82.166 143.015 82.3418 142.833 82.4785 142.65C82.6217 142.468 82.7194 142.318 82.7715 142.201L82.8496 141.996ZM95.2422 151.596H97.0391V153.002H95.2422V156H93.7383V153.002H86.6387V151.303L93.3477 141.996H95.2422V151.596ZM93.7383 151.596V143.695L88.0449 151.596H93.7383ZM103.943 146.996C105.291 146.996 106.411 147.439 107.303 148.324C108.195 149.203 108.641 150.294 108.641 151.596C108.641 152.956 108.201 154.063 107.322 154.916C106.443 155.769 105.285 156.195 103.846 156.195C103.273 156.195 102.719 156.124 102.186 155.98C101.652 155.831 101.212 155.658 100.867 155.463C100.529 155.261 100.229 155.056 99.9688 154.848C99.7083 154.639 99.526 154.464 99.4219 154.32L99.2461 154.096L100.242 153.1C100.268 153.139 100.314 153.201 100.379 153.285C100.451 153.363 100.597 153.5 100.818 153.695C101.046 153.884 101.287 154.057 101.541 154.213C101.795 154.363 102.127 154.499 102.537 154.623C102.954 154.74 103.39 154.799 103.846 154.799C104.848 154.799 105.649 154.506 106.248 153.92C106.847 153.334 107.146 152.559 107.146 151.596C107.146 150.652 106.847 149.883 106.248 149.291C105.656 148.699 104.887 148.402 103.943 148.402C103.318 148.402 102.745 148.529 102.225 148.783C101.704 149.037 101.342 149.281 101.141 149.516L100.838 149.896H99.7441L100.242 141.996H107.742V143.402H101.541L101.238 147.797C101.316 147.745 101.427 147.673 101.57 147.582C101.714 147.484 102.016 147.364 102.479 147.221C102.947 147.071 103.436 146.996 103.943 146.996Z" fill="#B0B6BF"/>
</g>
<rect x="6" width="2" height="12.2979" fill="#B0B6BF"/>
<rect x="13" width="2" height="12.2979" fill="#B0B6BF"/>
<rect x="20" width="2" height="12.2979" fill="#B0B6BF"/>
<rect x="27" width="2" height="12.2979" fill="#B0B6BF"/>
<rect x="34" width="2" height="12.2979" fill="#B0B6BF"/>
<rect x="41" width="2" height="12.2979" fill="#B0B6BF"/>
<rect x="48" width="2" height="12.2979" fill="#B0B6BF"/>
<rect x="55" width="2" height="12.2979" fill="#B0B6BF"/>
<rect x="62" width="2" height="12.2979" fill="#B0B6BF"/>
<rect x="69" width="2" height="12.2979" fill="#B0B6BF"/>
<rect x="76" width="2" height="12.2979" fill="#B0B6BF"/>
<rect x="83" width="2" height="12.2979" fill="#B0B6BF"/>
<rect x="132" width="2" height="12.2979" fill="#B0B6BF"/>
<rect x="90" width="2" height="12.2979" fill="#B0B6BF"/>
<rect x="97" width="2" height="12.2979" fill="#B0B6BF"/>
<rect x="104" width="2" height="12.2979" fill="#B0B6BF"/>
<rect x="111" width="2" height="12.2979" fill="#B0B6BF"/>
<rect x="118" width="2" height="12.2979" fill="#B0B6BF"/>
<rect x="125" width="2" height="12.2979" fill="#B0B6BF"/>
</svg>
